<?xml version="1.0" standalone="no"?>
<!DOCTYPE svg PUBLIC "-//W3C//DTD SVG 20010904//EN"
 "http://www.w3.org/TR/2001/REC-SVG-20010904/DTD/svg10.dtd">
<svg version="1.0" xmlns="http://www.w3.org/2000/svg"
 width="512.000000pt" height="512.000000pt" viewBox="0 0 512.000000 512.000000"
 preserveAspectRatio="xMidYMid meet">
<metadata>
Created by potrace 1.11, written by Peter Selinger 2001-2013
</metadata>
<g transform="translate(0.000000,512.000000) scale(0.100000,-0.100000)"
fill="#000000" stroke="none">
<path d="M2415 5114 c-646 -50 -1186 -287 -1629 -714 -423 -408 -682 -924
-762 -1520 -20 -150 -23 -471 -5 -610 52 -410 193 -796 406 -1115 427 -639
1076 -1040 1840 -1136 145 -18 473 -16 625 5 583 79 1105 342 1510 762 390
404 629 910 701 1479 18 145 16 473 -5 625 -101 748 -514 1404 -1141 1813
-323 210 -709 350 -1092 396 -94 12 -373 21 -448 15z m95 -964 c187 -30 303
-166 287 -336 -11 -111 -64 -189 -162 -238 -72 -35 -125 -45 -242 -46 l-103 0
1 -177 c1 -216 10 -264 56 -278 18 -6 35 -14 39 -18 4 -4 -93 -7 -216 -7 -134
0 -220 4 -214 9 5 5 18 11 28 13 10 1 28 16 40 31 21 28 21 36 21 502 0 465 0
474 -21 502 -12 16 -33 29 -47 31 -15 2 -27 8 -27 13 0 12 478 12 560 -1z
m554 -664 c101 -31 158 -105 158 -205 0 -64 -11 -98 -48 -146 -26 -35 -113
-85 -147 -85 -17 0 -17 2 6 20 39 31 50 78 45 193 -4 112 -24 167 -74 206 -77
61 -144 -12 -144 -158 0 -121 43 -227 100 -251 44 -18 32 -21 -38 -9 -88 16
-147 56 -177 122 -44 93 -29 187 41 254 69 67 176 89 278 59z m-1014 -686 c0
-5 -13 -10 -30 -10 -17 0 -39 -9 -51 -21 -18 -18 -20 -29 -15 -66 7 -54 398
-996 407 -982 3 6 82 253 175 550 l169 539 35 0 35 0 235 -575 235 -576 124
373 124 373 1 130 c1 116 -1 134 -21 172 -25 46 -66 83 -94 83 -10 0 -21 5
-24 10 -4 7 83 10 254 10 167 0 261 -4 261 -10 0 -5 -6 -10 -12 -10 -7 0 -40
-13 -73 -29 -85 -40 -171 -135 -231 -258 -29 -60 -118 -312 -245 -696 -110
-330 -204 -618 -210 -639 -10 -37 -12 -39 -47 -36 l-37 3 -235 542 c-129 299
-238 543 -241 543 -3 0 -82 -244 -175 -542 l-170 -543 -36 -3 -35 -3 -46 103
c-25 57 -172 391 -327 743 -155 352 -293 659 -307 682 -37 64 -105 122 -153
129 -107 17 -6 24 360 24 260 0 400 -3 400 -10z"/>
<path d="M2334 4132 c-35 -23 -39 -55 -42 -324 l-3 -268 70 0 c87 0 117 13
142 62 62 122 38 458 -38 517 -26 21 -105 29 -129 13z"/>
</g>
</svg>
