<svg xmlns="http://www.w3.org/2000/svg" viewBox="0 0 122 76.4">
  <path d="M45.9 32.9c.2.3.3.9.3 1.7v1.2c0 .8-.1 1.3-.3 1.6-.2.3-.5.5-.9.5h-.6V33v-.5c.1 0 .1 0 .3-.1h.5c.2 0 .4 0 .5.1 0 .1.1.2.2.4zm15.6 12.4h-.1c-1.4 1-2.5 1.5-3.3 1.5-.4 0-.7-.1-.9-.2-.2-.1-.3-.4-.3-.7 2.5-.8 4.6-2.3 6.3-4.4 1.7-2.1 2.6-4.7 2.6-7.7 0-5.2-2-9.3-6-12.2-3.8-2.7-9-4.1-15.7-4.1-2.9 0-5.8.3-8.7.9-2.9.6-5.3 1.3-7.1 2.2-.9.5-1.6.9-2 1.4-.5.5-.7 1-.7 1.5v31.7c0 2.3.9 4 2.6 5.2 1.7 1.2 4 1.8 6.9 1.8 4 0 7.3-.9 9.9-2.7v-2.8l-1.9-4.8v-.1H43c-.9-.1-1.6-.2-2-.3-.4-.2-.6-.4-.6-.6 0-.3.1-.5.2-.6 1.4.2 2.5.3 3.4.4l1.2 3.2c1.1 3.1 2.8 5.4 5.1 6.8 1.8 1.1 3.9 1.7 6.2 1.7 3.2 0 5.7-.9 7.5-2.8 1.8-1.9 2.9-4.6 3.3-8l-5.8-6.3z" fill="none" stroke="#444" stroke-width="1"/>
  <path d="M97.5 59.2c-2.6 1.9-5.8 2.9-9.7 2.9-3 0-5.4-.6-7.2-1.9-1.9-1.3-2.8-3.1-2.8-5.5v-6.8h2.5c.4 0 .8 0 1.1-.1.3-.1.4-.1.5-.2.2-.2.3-.5.3-.9H72c0 .4.1.7.3.9.1.1.2.1.4.2s.5.1.9.1h2.7v11.3l-.1.1c-1.7 1.1-3.4 1.9-4.9 2.3-1.5.4-3.1.6-4.7.6-3 0-5.4-.6-7.2-1.9-1.9-1.3-2.8-3.1-2.8-5.5V21.5c1.2-1.2 2.6-2.2 4.3-2.8 1.7-.7 3.5-1 5.4-1 2.7 0 5 .7 6.9 2 2.1 1.5 3.1 3.7 3.1 6.4v5.8h3.9c0-.5-.1-.7-.3-.9-.2-.2-.4-.3-.9-.3h-1.3v-9.1c1.2-1.2 2.6-2.2 4.3-2.8 1.7-.7 3.5-1 5.4-1 2.7 0 5 .7 6.9 2 2.1 1.5 3.1 3.7 3.1 6.4v33zM82.2 18.7c-1.7.6-3.1 1.6-4.3 2.8v8.9H79c.5 0 .8.1 1 .3.2.2.3.5.3 1v.2h-4.2V26c0-2.7-1-4.8-3-6.3-1.9-1.3-4.1-2-6.8-2-1.8 0-3.6.3-5.3 1-1.7.6-3.1 1.6-4.3 2.8v33.2c0 2.4.9 4.2 2.8 5.4 1.8 1.2 4.1 1.8 7.1 1.8 1.6 0 3.2-.2 4.7-.6 1.5-.4 3.2-1.1 4.9-2.2v-11h-2.5c-.8 0-1.2-.1-1.4-.3-.2-.2-.3-.5-.3-1v-.2h10.5v.2c0 .4-.1.8-.4 1-.2.2-.8.3-1.7.3H78v6.6c0 2.4.9 4.2 2.8 5.4 1.8 1.2 4.1 1.8 7.1 1.8 3.9 0 7.1-.9 9.6-2.8V26c0-2.7-1-4.8-3-6.3-1.9-1.3-4.1-2-6.8-2-2.1 0-3.8.4-5.5 1z" fill="none" stroke="#444" stroke-width="1"/>
</svg>